<?xml version="1.0" encoding="utf-8"?>
<svg viewBox="158.207 166.598 200.333 161.531" xmlns="http://www.w3.org/2000/svg">
  <path style="stroke-width: 0.265; stroke-dasharray: none; stroke-opacity: 1; fill-rule: nonzero; paint-order: fill; stroke: rgb(255, 255, 255); fill: rgb(255, 255, 255);" d="m 115.3921,131.74451 v 4.1742 h -2.10415 v -10.61797 h 9.59953 v -3.57592 h -21.5708 v 3.57783 l 7.05019,-0.004 c 0,0 2.78263,0.44897 2.78263,3.26955 0,2.82058 -2.53109,3.09113 -2.77417,3.09113 -0.24308,0 -1.544,0.006 -1.544,0.006 l 4.19882,4.23369 h -2.74059 l -4.16711,-4.22211 h -2.80852 v 6.74869 l 21.54997,-0.004 -0.001,-6.6678 z m 9.18362,8.47529 H 99.698608 v -10.39421 l 8.678992,-0.0123 c 0,0 0.93745,-0.10972 0.93745,-1.32961 0,-1.21989 -1.0106,-1.41461 -1.0106,-1.41461 l -8.62214,-0.0388 v -6.88342 h 24.89483 v 7.18221 h -9.25861 v 2.39861 h 9.25762 c 0,2.94687 -4.3e-4,6.67449 -4.3e-4,10.49213 z" id="path351" transform="matrix(8.047191, 0, 0, 8.047191, -643.956055, -800.246338)"/>
</svg>